<svg version="1" xmlns="http://www.w3.org/2000/svg" width="2666.667" height="2666.667" viewBox="0 0 2000.000000 2000.000000"><path d="M969 310c-17.7 1.2-33.3 3.1-38 4.7-2.5.8-6.7 1.9-9.5 2.4-7 1.2-22.1 6-29.7 9.3-2 .9-4 1.6-4.5 1.6-.8 0-18.6 8.4-24.8 11.7-1.6.9-4.7 2.5-6.7 3.6-2 1-4.2 2.5-4.9 3.3-.6.8-1.7 1.4-2.4 1.4-.6 0-3.1 1.3-5.3 3-2.3 1.6-4.5 3-4.8 3-.4 0-1.7 1-2.9 2.2-1.3 1.3-4.5 3.9-7.1 5.8-6.2 4.4-16.1 12.5-19.5 15.9-1.4 1.4-5.2 5.1-8.5 8.2-15.2 14.6-29.5 33.3-42 55.1-4 7.1-4.9 8.7-6.8 12.8-.9 1.9-2 4.2-2.5 5-7.7 13.1-19.9 55.7-22.2 77.3-.5 5.2-1.8 10.9-2.9 13.2-3.1 6.4-4 13.5-3.9 31.4.1 33 3.5 65.3 9.5 91.1 1.3 5.8 2.4 11.4 2.4 12.5.1 1.1.8 3.8 1.6 6s2.3 7.6 3.3 12c2.2 9.3 4.5 16.1 11.2 33.7 2.7 7 4.9 13.1 4.9 13.5 0 .4 1.1 3 2.4 5.8 3.4 6.8 12.1 25.2 14 29.5.9 1.9 2.6 5.3 3.9 7.5 1.3 2.2 3.8 6.6 5.5 9.7 5.2 9.4 5.6 10.2 7.3 12.3.8 1.1 3.2 4.9 5.3 8.5 2.2 3.6 4.4 6.9 5 7.5 1 .9 6.1 9.1 13.5 21.5 17.4 29.3 17.9 52.9 1.8 83.5-6.2 11.9-17.8 24.4-28.5 30.7-3.5 2.1-6.8 3.8-7.3 3.8-3.4 0-17.9 14.8-17.9 18.2 0 .8-.4 1.8-.9 2.4-1.8 1.8-4.1 11.9-4.1 18 0 8.7 5.6 21.7 12.1 27.9.5.5 1.8 1.8 2.7 2.8.9 1 3.3 2.5 5.2 3.4 1.9.9 4.2 2.2 5.1 3 3 2.5 16.8 3.8 26.5 2.5 4.8-.6 9-1.6 9.3-2 1-1.5 4.9-3.2 7.3-3.2 1.6 0 3.7 1.8 7 5.8 6.2 7.6 13.8 15.3 22.8 23.2 4.1 3.6 8.4 7.4 9.6 8.6 2.5 2.4 15.2 11.2 19.2 13.3 1.5.8 2.9 1.7 3.2 2 .3.4 2.8 1.8 5.5 3.2 2.8 1.4 5.9 3 7 3.6 5.7 3.2 14.6 7.3 15.5 7.3.6 0 2.9.9 5.1 1.9 2.2 1.1 5.4 2.3 7.2 2.7 1.8.3 5.2 1.7 7.7 2.9s7.2 2.5 10.5 2.9c3.3.4 9.4 1.6 13.5 2.8 6.8 2 9.8 2.2 33.5 2.1 24.9 0 26.4-.1 36.2-2.6 5.6-1.5 11.2-2.7 12.5-2.7 1.3 0 5-1.1 8.3-2.4 3.3-1.3 9.4-3.6 13.5-5 9.1-3.2 39.1-18.2 39.8-19.8.2-.4 3.6-2.9 7.5-5.5 8.5-5.6 15.5-11.3 25.3-20.7 10.7-10.1 9.4-9.6 21.9-8.5 6.1.5 13.7 1.6 17 2.5 3.3.8 8.4 1.9 11.4 2.4 2.9.5 7.2 1.8 9.5 2.9 2.2 1 5.6 2.2 7.5 2.6 1.9.4 4.8 1.5 6.5 2.4 1.7.9 5.4 2.5 8.1 3.5 2.8 1.1 5.5 2.3 6.1 2.7 2.6 2 14.9 3.2 22.9 2.2 6.9-.9 9-1.7 15-5.5 8.3-5.4 11.4-8.7 15.8-17 3.1-6 3.2-6.6 3.2-18.2 0-11.8-.1-12.3-3.4-18.8-5.1-10.1-10.4-15-21.9-20.4-5.3-2.5-11.3-5.4-13.2-6.3-1.9-1-5.5-2.4-8-3.1-2.5-.8-5.4-2-6.5-2.7-1.1-.7-3-1.3-4.2-1.3-1.3 0-5.1-1.1-8.5-2.5-3.4-1.4-7.1-2.5-8.3-2.5-1.1 0-6.3-1.1-11.5-2.4-5.2-1.4-12.8-2.8-16.8-3.2-6.8-.6-7.8-1-13-5.3-3.1-2.5-8.7-6.1-12.4-7.9-3.6-1.8-7.3-4.3-8.1-5.5-.8-1.2-3-3.8-4.8-5.7-1.8-1.9-5.2-6.4-7.7-10-2.4-3.6-5-7.2-5.7-8-.7-.8-3-4.8-5.1-8.8-2.1-4-4.1-7.5-4.6-7.8-2.7-1.7.1-6.7 8.9-16.2 2.3-2.6 4.3-5.3 4.3-6 0-.7.7-1.5 1.5-1.8.8-.3 2.7-2.6 4.2-5.1 1.5-2.5 3.8-6.2 5-8.2 1.2-2 3.4-5.9 4.8-8.6 1.4-2.8 2.9-5.7 3.4-6.5.5-.8 2.4-4.7 4.2-8.5 4.6-10.1 9.1-19 13.8-27.2 2.2-4 4.1-7.5 4.1-7.9 0-.4 1.1-2.2 2.5-4 1.4-1.8 2.5-3.7 2.5-4.3 0-1.4 3.4-7.1 4.3-7.1.4 0 .7-.6.7-1.3 0-.7 1.1-2.9 2.4-4.8 1.4-2 2.8-4.8 3.1-6.2.4-1.4 1.5-3.3 2.6-4.3 1-.9 1.9-2.2 1.9-2.9 0-.6 1.1-3.4 2.5-6.1 2.3-4.3 6.9-14.4 12.5-26.9 1-2.2 2.1-5.1 2.5-6.5.4-1.4 1.6-4.1 2.6-6 1.1-1.9 1.9-4 1.9-4.5 0-.6.9-3 2-5.2s2.4-5.8 2.9-7.9c.5-2.2 1.8-6.4 2.9-9.4 3.4-9.5 7.2-21.7 7.2-23.2 0-.8 1-4.4 2.1-7.9 2.5-7.6 6.5-25.7 8.4-38.4.8-5 1.9-11.7 2.5-15 .5-3.3 1.6-13.4 2.4-22.5 1.5-17.5 2.2-21.6 4-23.9.7-.9 1.1-7.8 1-20.1-.1-18.2-.6-22.5-5.4-48-1.5-8.3-5.8-23.5-7.9-28.3-1.2-2.7-2.1-5.4-2.1-6.1 0-2.7-15.2-36.1-17.1-37.6-.4-.3-1.7-2.4-2.9-4.7-1.2-2.3-2.8-4.7-3.6-5.4-.8-.6-1.4-1.6-1.4-2.1 0-3-12.8-19.9-26.6-35.1-11.1-12.3-15.2-16.2-26.4-25.5-4.1-3.4-8.2-6.8-9-7.5-2.2-1.8-15.7-10.9-18.8-12.7-1.5-.8-5.2-3-8.2-4.8-3-1.8-6.2-3.7-7-4.2-.8-.5-2.8-1.5-4.5-2.3-1.6-.8-4.6-2.2-6.5-3.2-9.3-4.7-11.4-5.7-16.7-7.5-3.2-1-9.6-3.3-14.3-5-4.7-1.8-11-3.6-14-4.1-3-.5-8.4-1.8-12-2.8-3.6-1.1-9.4-2.2-13-2.6-3.6-.3-9.4-1-13-1.5-9.3-1.3-32.7-1.8-45-1zm53.2 87.5c6.2 1.4 13.3 3.3 15.8 4.2 2.5.9 6.8 2.4 9.6 3.3 6.9 2.4 24.3 10.9 27.5 13.4 1.5 1.2 4.1 3 6 4.1 5.3 3.2 6.1 3.8 11.9 8.3 9.8 7.8 25.8 23.8 30.5 30.6 1.1 1.6 3.2 4.3 4.8 6.1 1.5 1.8 2.7 3.6 2.7 4.1 0 .4.6 1.5 1.4 2.3 2.1 2.4 6 9.5 10.5 19.1.4.8 1.6 3.1 2.6 5 2.6 5 2.9 5.8 4.9 12.5 1 3.3 2.7 8.7 3.8 11.9 1.1 3.3 2.4 8.7 2.9 12 .4 3.4 1.2 8.6 1.6 11.6 1.1 7 .7 8.9-2 9.5-5.3 1.3-47-4.5-57.7-8-2.5-.8-6.7-2.1-9.5-2.9-19.2-5.6-33-13.5-45.6-26.1-9.3-9.4-14.1-16.3-21.8-31.7-9.1-18-10.6-20.4-15.6-25.1-5.3-5-11.4-8.4-19.1-10.4-5.5-1.5-7.3-1.5-14.6-.4-11.5 1.8-25.1 9.1-28.1 15-.4.9-2.6 4.3-4.7 7.6-2.2 3.3-7 12.1-10.6 19.5-3.6 7.4-6.9 14.2-7.5 15-.5.8-1.6 3.1-2.4 5-1.5 3.3-2.1 4.5-4.5 8.7-.5 1-1.5 2.9-2 4.3-1.1 2.5-5.4 9.6-10.1 16.6-5.4 8-17.8 18.4-21.8 18.4-.9 0-2.5.6-3.6 1.4-2.1 1.4-13.1 3.6-18.2 3.6-1.7 0-6.1 1.6-9.9 3.5-19.6 9.8-28.5 32.8-20.4 53 .4 1.1 1.3 3.3 1.9 4.8 1.8 4.6 10.1 12.6 17.6 17l7 4.2 16-.1c13.7-.1 16.8-.4 21.9-2.2 3.3-1.2 6.6-2.2 7.5-2.2.9 0 3.5-.9 5.6-2 2.2-1.1 6.2-2.7 8.8-3.5 5-1.5 22.6-11.5 24.7-14 .7-.8 1.7-1.5 2.2-1.5 1.3 0 22.6-21.8 27.4-28.1 2.2-3 4.8-6.8 5.7-8.6.9-1.7 2.9-4 4.5-5.1 3.3-2.4 4.7-1.9 11.9 4.8 2.7 2.5 6 5.3 7.3 6.2 1.4 1 6.3 4.4 11 7.7s10.6 7 13.3 8.2c2.6 1.2 4.7 2.5 4.7 3s.8.9 1.8.9c.9 0 3.6 1.1 5.9 2.4 2.3 1.4 5.3 2.8 6.5 3.1 1.3.4 4.7 1.8 7.6 3.1 2.9 1.3 5.7 2.4 6.3 2.4.6 0 4.3 1.1 8.2 2.4 7.4 2.5 21.7 6.2 29.7 7.7 15.6 2.9 29.7 4.9 37.5 5.5 5 .3 10.7 1 12.8 1.5l3.9 1-.7 6.2c-.4 3.4-1.7 9.3-3 13.2-1.2 3.8-2.6 8.8-2.9 11-.9 5.3-10.4 33.4-14.6 43-11 25.7-20.9 45.4-28.6 57.1-1.9 2.8-3.4 5.4-3.4 5.8 0 .5-1 2.2-2.2 3.8-1.2 1.7-4 6.7-6.3 11.2-4.4 8.4-12.3 24-13.5 26.6-.3.8-1.4 2.8-2.2 4.5-.9 1.6-1.9 3.7-2.2 4.5-.8 1.9-5.5 9.8-8.1 13.5-3.6 5-17.4 18.3-21.3 20.3-13 7-17.7 8.8-29.6 11.1-11.7 2.3-29.6 2.8-35.6 1.1-1.9-.6-6.1-1.4-9.3-2-9.3-1.5-29.6-10-34.8-14.6-.8-.8-1.9-1.4-2.3-1.4-2.3 0-16.9-13.8-25.3-24-6.9-8.3-6.5-7.8-8.9-12.5-3.3-6.6-9.8-15.7-15.8-21.7-3.1-3.1-5.6-6.1-5.6-6.6 0-.4-1.3-2.6-3-4.8-1.6-2.1-3-4.3-3-4.8s-.7-1.8-1.7-2.8c-.9-1-2.1-2.6-2.7-3.7-.6-1-2.7-4.4-4.6-7.6-4.5-7.3-13.5-23.9-15.5-28.5-.8-1.9-2.4-5.3-3.5-7.5-4.2-8.7-8-17.6-8-18.6 0-.5-.9-2.8-1.9-5-1.1-2.2-2.3-5.4-2.6-7.2-.4-1.8-1.8-5.5-3.1-8.4-1.3-2.8-2.4-5.9-2.4-6.8 0-.9-1.1-5.5-2.5-10.3-3.4-12.1-6.6-27.6-8.5-40.2-3.4-23.5-4-28.5-4-39.1 0-9.8.3-12 1.9-14 1.5-2 1.9-5 2.5-18.3.4-8.8 1.4-19.3 2.2-23.5.9-4.2 2.2-10.3 2.8-13.6.7-3.3 2.2-8.2 3.4-10.9 1.2-2.7 2.2-5.5 2.2-6.3 0-1.7 6.6-17.2 9.5-22.4 5.6-9.9 8.8-14.9 9.6-14.9.5 0 .9-.5.9-1.1 0-.5 1.5-3.1 3.4-5.7 10.4-14.2 28.4-31.9 40.5-39.8 2.4-1.6 5.6-3.7 7-4.6 4.5-3 18.9-10.8 19.8-10.8.4 0 2.6-.8 4.8-1.9 6.7-3.2 14.8-6.3 19-7.3 2.2-.5 7.6-1.9 12-3.1 10.7-2.9 21.1-3.6 44.7-3.2 17 .3 21.4.7 31 3zM907.6 941.9c.5.5 3.4 1.8 6.4 2.9 9.7 3.4 12.4 4.5 18 6.8 3 1.2 8 2.5 11 2.9 3 .4 9.3 1.6 14 2.8 7.3 1.7 11.6 2 30.5 2 18.5 0 23.6-.3 32-2.1 18-3.8 16.9-3.8 19.6.5 1.3 2.1 3.1 5.4 4.2 7.3 5.6 10.7 18.4 29.7 24.3 36.2 1.9 2.1 3.4 4.6 3.4 5.6 0 1.7-6.3 8.4-10.1 10.7-.9.5-3.5 2.3-5.8 3.8-8.7 5.8-29 15.2-34.9 16.3-2 .3-6.8 1.5-10.7 2.7-10.9 3.2-29.6 2.9-43.5-.7-16.1-4.2-24.1-7.6-41.7-17.3-2.2-1.2-4.5-2.9-5.2-3.7-.8-.9-1.9-1.6-2.6-1.6-.7 0-6.9-5.5-13.8-12.3-11.8-11.6-17.7-18.9-17.7-22.1 0-.8 1.5-4.5 3.4-8.3 5.4-10.7 8.4-17.6 9.2-20.6.3-1.6 1.7-5.1 3-7.8 2.4-4.8 4.7-6.2 7-4z"/><path d="M1559 390.2c-8.5.3-19.1 1.3-23.5 2.2-4.4.9-10.5 2.1-13.5 2.7-5.6 1-20.9 5.4-24.5 6.9-1.1.5-4.2 1.6-7 2.6-8.4 2.9-22 9.2-35 16.4-6.2 3.4-25.2 15.6-27.1 17.4-.6.6-5 4.2-9.8 8.1-13.1 10.7-44.6 43.4-44.6 46.4 0 .4-.8 1.6-1.7 2.7-2.6 2.9-11.7 16.3-14.2 20.9-1.2 2.2-3.5 6.2-5.2 9-1.6 2.7-4 7-5.2 9.5-1.2 2.5-2.5 4.7-2.8 5-.3.3-1.1 1.8-1.7 3.5-.6 1.6-2.5 6.4-4.2 10.5-3.7 8.9-10 27.1-11.1 32-.4 1.9-1.6 7.1-2.7 11.5s-2.8 12.9-3.7 19c-2.1 13.8-3.1 17.7-6.3 24l-2.6 5-.7 37c-.7 34.9-1.4 49-3.9 75-.5 6-1 14.6-1 18.9 0 4.4-.4 11.6-1 16-1.3 10.7-3.1 35.5-4 53.6-1.2 23.3-3 49.4-3.6 51-.3.8-1 9.4-1.5 19-.4 9.6-1.4 24.7-2 33.5-1.8 23.7-1.7 30.1.5 37 1.1 3.3 2.9 7.3 4.1 9 1.2 1.6 2.4 3.7 2.7 4.6 1.1 3 11.3 10.6 17.9 13.3 5.8 2.4 7.5 2.7 14.5 2.3 13.8-.7 20.6-3.4 29-11.4 11.3-10.8 13.4-18 15.4-55.3 1.1-19.7 2.7-43.4 3.6-52.8.6-5 1-6.2 2.4-6.2 2.5 0 8.6 9.4 18.3 28 11.6 22.3 18.1 32.8 25.9 42.2 3.4 4 3.4 4.6.5 9-1.3 1.8-3.6 7-5.1 11.3-5.8 16.6-12.7 32.4-17.4 40-3.2 5.1-14.8 22.4-16.8 25-1.3 1.7-3.1 2.1-13.2 2.6-11.3.7-25.8 2.7-35.2 4.9-6.1 1.5-21 5.9-23.5 7-1.1.4-4.2 1.6-7 2.6-6.8 2.3-25.5 11.6-33.8 16.7-16.3 10.1-35.6 25.8-45.5 37-2 2.3-4.5 5.1-5.6 6.2-8 8.6-25.3 34.7-30.6 46.2-1.7 3.7-4 8.6-5 10.8-4.9 10.3-11.4 31.8-13.6 45-4.4 26.2-4.4 25.6-4.4 164.4v132.4l2.6 7.6c4.6 13.4 14.7 23.9 26.5 27.4 11.1 3.3 26 1.7 35.1-4 5.2-3.2 11.2-9.5 14.2-14.9 5.8-10.3 5.6-5.8 5.6-150.2 0-125.9.1-133.3 1.9-144.2 1.1-6.3 2.9-14 4-17 1.2-3 2.1-6.1 2.1-6.8 0-2.8 11.3-23.7 17.1-31.9 6.6-9 17.1-20.2 25.4-26.8 5-4 13.1-9.5 14.1-9.5.3 0 2-1.1 3.8-2.5 1.8-1.4 3.8-2.5 4.3-2.5.6 0 3.1-1.1 5.4-2.5 2.4-1.4 5-2.5 5.7-2.5.8 0 2.8-.6 4.5-1.4 11.1-4.8 26.4-7.4 53.6-9.1 5.7-.4 12.1-1.3 14.3-2.1 6.6-2.3 20.2-9.2 23.3-11.8 1.7-1.4 3.5-2.9 4-3.3 9.9-7.4 23.9-24.2 32.7-39.2 3.9-6.5 18.9-37.2 22.2-45.3 1.5-3.6 3.3-6.9 4-7.1.7-.3 3.5.5 6.2 1.8 34.2 16.3 64.3 19.7 100.4 11.3 14.4-3.3 16.1-3.8 20.3-5.8 2.2-1.1 4.6-2 5.1-2 .6 0 3.2-1.1 5.8-2.4 10.8-5.5 11.4-5.4 13.8 2.4 4.7 15.4 15.3 38.6 21.8 47.7 3.2 4.5 2.8 6.4-2.5 11.2-2.7 2.4-11.8 11.2-20.4 19.5-8.5 8.3-19.1 18.4-23.5 22.5-4.3 4.1-16.4 15.6-26.9 25.6-27.8 26.6-28.8 27.5-30.7 27.5-1 0-8.4-6.5-16.5-14.4-20.1-19.6-29.7-28.8-31.9-30.6-7.1-5.7-13.5-7.5-25.9-7.5-14.6.1-21.6 2.9-30.2 12.4-10 10.8-13.9 27.6-9.4 39.6 5.1 13.5-.5 7.5 71.6 78 8.3 8.1 17.3 16.2 20 18 13.2 8.6 31.6 8.6 45 0 5.6-3.6 14.4-11.8 52.5-48.8 15.6-15.2 65-62.7 87.9-84.7 10.2-9.8 9.3-9.6 26.7-4 1.6.5 5 1.4 7.5 1.9 2.4.5 8.9 1.8 14.4 3s12.5 2.6 15.5 3.2c11.4 2.2 30.8 9.6 37.1 14.1 7.5 5.4 19.4 16.6 26.5 24.9 6.6 7.7 15.1 22.5 21.4 37.4 3.3 7.9 6.1 19.9 7.4 32.2 1.4 12.2 1.6 32.9 1.6 143.9 0 118.7.1 130.2 1.7 135.3.9 3.1 2.6 6.9 3.8 8.6 1.2 1.6 2.4 3.7 2.7 4.6.4.9 3 3.6 6 6.1 4.6 4 7.5 5.5 18.6 9.9 4.6 1.8 14.8 1 22.4-1.7 12.3-4.4 21.6-13.9 26.1-26.6l2.2-6.3v-137c0-102.3-.3-138.9-1.2-144.5-.7-4.1-1.7-10.9-2.3-14.9-1.4-10.7-6-27.4-9.6-35.8-.8-1.7-1.4-3.5-1.4-4s-1.1-3.3-2.5-6.1c-1.4-2.9-2.5-5.5-2.5-5.9 0-.7-1.7-4.1-9.1-18.3-1.3-2.5-3.7-6.5-5.4-9-1.7-2.5-5.1-7.4-7.5-11-2.5-3.6-5.2-7.2-6-8-.8-.8-3.8-4.2-6.5-7.5-12.2-14.6-28-28.6-41.5-36.7-9.3-5.6-21.9-11.8-24.1-11.8-.9 0-1.9-.3-2.3-.7-.9-1-7-3.1-15.5-5.4-4.1-1.1-8.7-2.7-10.3-3.5-3.3-1.7-3-2.5 3.2-7.8 9.3-7.9 26.1-26 32.5-35 1.1-1.6 2.6-3.4 3.3-4.1.6-.8 1.2-1.6 1.2-1.8 0-.2 2.2-3.7 4.8-7.8 4.9-7.6 7.1-11.5 12.7-22.9 5.1-10.4 6.5-13.9 10.1-24.5 9.5-28.8 13.7-61.2 11.5-88.5-1.9-22.7-4-33.4-10.8-56-3.4-11.4-10.7-34.7-14.8-47.5-1.3-3.9-3.7-11.7-5.4-17.5-1.8-5.8-4.3-13.9-5.5-18-4.4-13.9-7.6-24.5-9.3-30-1-3-2.1-5.9-2.5-6.5-.4-.5-.8-1.6-.8-2.4 0-1.4-3.7-14-8.5-28.6-1.2-3.9-3.5-11.1-5-16-1.5-5-3.1-10-3.6-11.2-1.5-4.1-3.9-15.4-3.9-18.6 0-2.8-1.6-11.7-5-27.3-1.4-6.6-9.9-31.3-13-38.2-1.7-3.5-3-6.7-3-7.1 0-.8-5-10.5-10.5-20.6-1.5-2.8-3.6-6.6-4.6-8.6-1-1.9-2.5-4.1-3.3-4.9-.9-.7-1.6-1.6-1.6-2.1 0-.8-5.8-9.8-7-10.9-.3-.3-4.2-5.2-8.5-11-14.5-19.1-46.8-49.5-62.2-58.5-1.8-1.1-3.3-2.3-3.3-2.7 0-.4-.5-.8-1.1-.8-.6 0-2.5-1.1-4.2-2.4-4.6-3.5-30.7-17.3-39.7-21-7.9-3.2-17.4-6.6-21.4-7.7-2.2-.5-6.7-1.9-10-2.9-19.9-6.4-47.1-9.1-77.6-7.8zm31 84.3c19 2.9 33.7 6.6 43.7 11 10.4 4.6 26.5 12.8 32 16.4 3.4 2.3 6.6 4.1 7 4.1.5 0 2 1 3.3 2.2 1.4 1.3 5 4.3 8 6.8 13.4 10.9 25.8 24.3 34.9 37.5 1.9 2.7 3.8 5.2 4.2 5.5.4.3 1.7 2.3 2.8 4.5 1.2 2.2 2.7 4.9 3.4 6 3.7 6.1 5.5 9.4 7 13.2.9 2.3 2.5 6.1 3.5 8.5 3.7 8.4 7.3 18.6 8.2 23.4.5 2.7 1.6 7.8 2.5 11.4.8 3.6 1.8 9.9 2.1 14 .9 10.7 1.4 10.5-19.5 9.2-21.9-1.4-47.5-6.1-64.6-11.7-3.8-1.2-8.7-2.6-10.9-3-2.1-.3-6.2-1.7-9.2-3.1-2.9-1.3-5.9-2.4-6.6-2.4-.8 0-1.8-.4-2.4-.9-.5-.5-3.6-1.8-6.8-3-13.6-5-41.1-18.5-58.3-28.7-7.9-4.7-17.6-10.9-18.7-11.8-.6-.6-3.8-2.5-7.1-4.1-5.7-2.8-6.6-3-18-3-11.6.1-12.2.2-18.2 3.3-21.9 11.7-29.6 37.2-17.7 58.1 1.5 2.5 4.7 6.6 7.3 9 3.9 3.6 25.9 19 32.6 22.7 1.1.6 4.7 2.6 8 4.4 3.3 1.8 7.8 4.3 10 5.5 12.6 7.1 16.7 9.1 39 19 1.7.7 4.1 1.7 5.5 2.1 1.4.3 4.3 1.4 6.5 2.4 6 2.6 19.8 7.4 30 10.5 5 1.4 11 3.2 13.5 4 5 1.5 10.6 2.8 19.5 4.5 3.3.7 8.3 1.8 11 2.5 2.8.8 7.5 1.6 10.5 1.9 3 .3 9.6 1.3 14.5 2.1 5 .9 16.1 2 24.8 2.5 16.8 1 19.3 1.4 20 3.3.8 2.4-7.9 39.2-11.2 47.2-2.5 6-3.4 8.4-4.8 12.5-1.9 5.7-4.1 10.6-13.7 31-2.9 6.3-11.7 20.9-17.5 29.1-2.1 3.1-5.7 8.3-8 11.6-3.3 4.8-5.3 6.7-9.9 8.9-8.8 4.3-15.1 9.4-19.2 15.3-2.3 3.3-3.1 4.6-7.6 13.1-3 5.5-13.7 19.1-18.1 23-16.5 14.7-32.1 23.4-48.8 27.3-16.7 3.9-17.5 3.9-26.5 2.3-17.6-3.1-35-12.8-51.8-29.1-7.9-7.6-22.2-25-22.2-27 0-.4-1.1-2.1-2.4-3.8-1.3-1.8-5.2-8.8-8.8-15.7-3.5-6.9-8.3-15.7-10.7-19.5-2.3-3.9-4.5-7.5-4.9-8.2-.4-.7-5.9-9-12.3-18.5-12.7-19-13.1-19.7-17.9-28.3-6.4-11.5-16-32.1-16-34.3 0-.7-.4-2-.9-3-2.2-4.4-4.1-9.4-4.1-11 0-1-.4-2.2-.8-2.8-.8-.8-2.3-5.8-5.7-19.2-1.4-5.7-2-8.3-4.9-23.7-2-10-2.1-27.3-.2-34.5 2-8 2.6-13 3.6-27.5 1-15.5 3.3-29.5 6.6-40.5.8-2.5 2.2-7 3.1-10 .9-3 2-6 2.3-6.5.4-.6 1-2.3 1.4-4 1.3-5.3 10.8-23.8 17.3-33.5 8.4-12.6 9.3-14 12.5-17.5 1.4-1.7 3.6-4.1 4.8-5.5 5.6-6.5 17.1-17.8 22.5-22.1 6.6-5.2 16.4-11.9 17.3-11.9.3 0 1.3-.6 2.1-1.4 3-2.7 25.6-13.3 33.6-15.9 7.8-2.5 12.7-3.6 27-6.2 9.6-1.7 26.1-1.7 37.5 0zm222.1 367c1.5 5 3.5 11.7 4.3 15 .8 3.3 2.1 8.2 2.8 11 .8 3.4 1.2 11.7 1.2 25.5-.1 18.1-.4 21.4-2.4 28.5-1.2 4.4-2.6 9.3-3 11-.8 3.1-2.4 7.5-3.9 11-.5 1.1-1.7 4.1-2.7 6.7-.9 2.7-2.1 4.8-2.5 4.8-.5 0-.9.7-.9 1.5 0 1.7-4.3 8.9-11 18.5-6.7 9.7-29.5 32-32.7 32-.5 0-1.8.9-2.8 2-1 1.1-3 2.6-4.4 3.3-1.4.7-5.2 2.8-8.3 4.5-6.5 3.6-9.3 4-10.7 1.3-3.5-6.4-7.4-21.3-7.9-29.5-.4-8.5 1.1-21.9 2.8-24.1.4-.6 1.1-2.6 1.5-4.5 1-5 3.5-9.2 21.4-35.9 1.3-1.9 3-4.2 3.8-4.9.7-.7 1.3-1.7 1.3-2.1 0-.4.8-1.6 1.8-2.7 1.8-2.1 3.2-3.9 8.9-12.4 5.5-8.1 10.2-15.7 15.2-24.3 4.1-7.2 16.6-31.9 19-37.7 2.7-6.3 4-8.2 5.4-7.7.5.1 2.2 4.3 3.8 9.2zM414 397.1c-26 2.7-37 4.2-42 5.8-3.1 1-8 2.2-10.9 2.6-3 .4-7.7 1.8-10.5 3.1s-5.8 2.4-6.6 2.4c-.8 0-3.7 1.2-6.5 2.5-2.7 1.4-5.7 2.5-6.6 2.5-.9 0-2.2.7-2.9 1.5-.7.8-1.8 1.5-2.4 1.5-2.4.1-26.7 13.2-28.6 15.5-.7.8-1.8 1.5-2.4 1.5-.7 0-3 1.3-5.2 3-2.1 1.6-4.3 3-4.9 3-.5 0-1.8.9-3 2-1.1 1.2-5.8 5-10.4 8.6-8.8 6.8-14.8 12.1-21.5 19.2-2.3 2.4-6.4 6.6-9.1 9.5-2.8 2.9-6.6 7.4-8.5 10-1.9 2.7-4.5 5.8-5.7 7-1.3 1.1-2.3 2.7-2.3 3.4 0 .8-.7 1.6-1.5 1.9-.8.3-3.6 4.2-6.1 8.5-2.6 4.3-5 7.9-5.5 7.9-.4 0-1.1 1-1.4 2.2-.4 1.3-1.7 3.6-2.9 5.3-1.9 2.8-10.6 19.9-15.4 30.5-8.4 18.3-16.1 44.4-18.8 63-.8 5.2-2.3 14.9-3.4 21.5-1.7 9.6-2 16.1-2 32 .1 11 .5 23.4.9 27.5 1.6 14.3 5.3 38.5 6.8 43.5.8 2.7 2.1 8.4 2.8 12.5.8 4.1 2.3 10.2 3.4 13.4 1.2 3.3 2.1 6.7 2.1 7.7 0 1.7.7 3.6 3.6 10.6.8 1.7 1.4 3.8 1.4 4.6 0 .8 1.1 3.9 2.4 6.8 1.2 3 2.6 6.7 3 8.4.4 1.6 1.9 5.5 3.2 8.5 1.4 3 3.3 7.3 4.3 9.5s3 6.5 4.4 9.5c1.4 3 3.2 7.1 4.1 9 .9 1.9 3.1 6.2 5 9.5 1.8 3.3 4.4 8 5.6 10.5 2.3 4.4 5.5 9.6 11.6 19 1.6 2.5 3.1 4.9 3.4 5.5.3.5 4 6.3 8.3 12.8 4.2 6.4 7.7 12.1 7.7 12.6s.7 1.4 1.6 2.1c.8.8 2.2 2.7 2.9 4.4 1.4 2.9 3.3 6.2 9.4 16.2 2.3 3.8 11.1 11.8 15.4 14 1.2.6 3.9 1.9 5.9 2.7 2.5 1.1 4 2.5 4.4 4.2.6 2.4 0 3.4-6.6 11.3-1.1 1.3-2.3 3.5-2.7 5-.3 1.4-1.7 4.1-3 6-1.2 1.9-2.3 4-2.3 4.7 0 .7-.8 2.3-1.8 3.6-1 1.3-2.4 4-3.2 5.9-.7 1.9-2.2 4.4-3.2 5.6-1 1.1-1.8 2.4-1.8 3 0 .5-1.4 2.7-3 4.8-1.7 2.2-3 4.3-3 4.8 0 .9-10 14.4-12.9 17.4-1.2 1.2-2.1 2.5-2.1 3 0 .4-.9 1.7-2 2.9-4.4 4.5-8.6 9.2-11.1 12.1-1.8 2.3-4.7 3.8-10.5 5.7-13 4.3-17.6 5.7-23.9 7.3-3.3.8-8.2 2.2-11 3.1-2.7.8-7.5 2.1-10.5 2.8-6.8 1.7-16.8 5.1-23.5 8.1-2.7 1.2-6.1 2.5-7.5 2.9-1.4.4-3.2 1.3-4 2-.8.6-3.1 1.8-5 2.5-1.9.8-4.6 2.2-5.9 3.2-1.3 1-2.9 1.8-3.7 1.8-.7 0-2.6 1.1-4.2 2.5-1.7 1.4-3.3 2.5-3.7 2.5-.7 0-11 6.6-13.6 8.8-.8.6-5.4 4.4-10.3 8.3-10.2 8.2-13.3 11.2-19.5 19.2-2.4 3.2-4.8 5.7-5.2 5.7-.5 0-.9.7-.9 1.5s-.8 2.2-1.8 3.2c-1.5 1.5-4 5.3-10 14.8-.7 1.1-2.1 3.8-3.2 6s-2.9 5.3-4 7c-1.1 1.6-2 3.7-2 4.6 0 .9-.8 2.7-1.9 4-1 1.3-2.1 3.5-2.5 4.9-.4 1.4-1.7 5-3 8-3.2 7.7-7.3 20.6-8.1 26-.4 2.5-1.7 7.9-2.9 12l-2.1 7.5v298l3 5.4c3 5.5 13.6 17.1 15.5 17.1.6 0 2.3.9 3.8 2 4.3 3.1 15.7 4.6 25 3.3 15.2-2.3 26.5-11.3 32-25.5l3.2-8.3.3-140.5c.3-131.4.4-140.8 2-145.5 1-2.8 2.3-7.5 2.8-10.4.6-3 1.9-7.3 2.9-9.5 1-2.3 2.6-6.2 3.5-8.9 1-2.6 2.1-4.7 2.4-4.7.4 0 1.3-1.6 2-3.5 1.2-3.4 10.6-18.1 14-21.8 4.8-5.4 8.1-8.3 12.4-10.9 2.6-1.7 4.7-3.4 4.7-3.9s.7-.9 1.5-.9 2.2-.8 3.2-1.8 3.4-2.5 5.3-3.2c1.9-.7 4.2-1.9 5-2.6.9-.8 3.6-2 6-2.9 2.4-.8 4.8-1.9 5.4-2.4 1.8-1.4 20.5-6.9 27.6-8.1 3.6-.7 6.9-1.5 7.5-1.8 2-1.3 8-3.2 10.2-3.2 1.3 0 5.1-1.1 8.5-2.4 3.5-1.2 8.1-2.6 10.3-3 2.1-.4 5.6-1.6 7.7-2.7 4.8-2.5 8.6-2.4 11.2.2 1.2 1.2 5.7 4.8 10.1 8 4.4 3.2 9.2 6.9 10.6 8.1 1.4 1.3 3.9 3.2 5.4 4.3 1.6 1.1 5.5 4 8.8 6.5 3.2 2.5 6.8 5.2 8.1 6 1.2.8 3.1 2.4 4.3 3.5 1.2 1.1 4 3.3 6.3 5 3.8 2.8 16.1 12.3 18.7 14.5.7.6 2.7 2 4.5 3.3 4.3 2.9 6.4 4.6 9.8 7.9 1.6 1.6 3.1 2.8 3.5 2.8.5 0 3.5 2.1 12.4 8.7 1.3 1 3.5 2.8 4.8 4 1.3 1.3 2.6 2.3 3 2.3.3 0 2 1.2 3.9 2.7 1.8 1.6 5.2 4.1 7.4 5.8 2.3 1.6 5.2 4 6.5 5.2 1.2 1.3 2.7 2.3 3.2 2.3s1.8.9 2.8 2c.9 1 4.7 3.4 8.4 5.1 6.3 3.1 7.2 3.2 19.1 3.3 12 .1 12.7 0 18-2.8 3-1.7 7.1-4.1 9-5.5 3.6-2.6 16.7-13.2 24-19.4.8-.7 5.1-4.2 9.5-7.7s8.9-7.1 10-8.1c2.4-2.2 5.2-4.6 16-13.4 4.4-3.6 9.4-7.8 11-9.3 3.5-3.1 9.4-12 9.5-14.3 0-.8.5-2 1.1-2.6.6-.6 1.4-5.2 1.7-10.1.4-7.3.1-10.3-1.6-15.9-1.2-3.9-3-8.1-4-9.4-1.1-1.3-2.1-2.9-2.3-3.6-.6-1.8-13.9-12.3-15.5-12.3-.8 0-4.4-1-8.1-2.1-7.6-2.5-12.8-2.2-23.8 1.2-6.5 2-9.9 4-15 8.8-1.1 1-2.8 2.1-3.7 2.4-1 .4-1.8 1-1.8 1.5s-1.9 2.2-4.2 3.7c-2.4 1.6-4.7 3.4-5.1 4.2-.4.7-1.4 1.3-2.2 1.3-.8 0-2.2 1.1-3.1 2.5-.9 1.4-2.1 2.5-2.7 2.5-.5 0-2.1 1.1-3.6 2.5-5.3 5.1-6.7 6.2-10.8 8.5l-4.1 2.3-3.9-2.3c-2.1-1.3-6-4.2-8.8-6.5-2.7-2.3-5.8-4.4-6.7-4.8-1-.3-1.8-1.1-1.8-1.6 0-.6-1.3-1.7-2.9-2.6-1.7-.8-4.1-2.5-5.5-3.7-1.4-1.3-4.1-3.4-6.1-4.8-1.9-1.4-4.8-3.6-6.4-5-4.8-4.1-5.8-4.9-10.6-8.1-2.5-1.7-4.5-3.5-4.5-4s-.5-.9-1.1-.9c-.6 0-2.8-1.4-4.8-3-2-1.7-4-3.4-4.6-3.8-.5-.4-2.8-2.1-5-3.7-2.2-1.7-4.6-3.5-5.3-4-.8-.6-2.4-1.9-3.6-3-1.3-1.1-4.8-3.7-7.9-5.8-3.1-2.1-6.8-5-8.2-6.3-1.4-1.3-3-2.4-3.6-2.4-2 0-.7-3.9 3.6-10.4 2.5-3.8 4.5-7.2 4.5-7.6 0-.4.9-1.5 1.9-2.4 1.1-1 2.5-3.2 3.2-4.9.7-1.8 1.8-3.9 2.6-4.8.8-.9 3.4-5.6 5.9-10.5 10.1-19.8 8.9-18.7 17-15.8 3.6 1.2 7.1 2.7 7.7 3.2.7.6 3.9 1.7 7.2 2.6 3.3.8 8.5 2.1 11.5 2.9 10.7 2.8 24.7 3.8 39 2.7 19-1.4 22.7-1.9 29.5-4 3.3-1 7.6-2.2 9.5-2.5 1.9-.4 5.3-1.6 7.4-2.6 2.2-1.1 4.5-1.9 5-1.9.6 0 2.5-.7 4.1-1.6 1.7-.9 7.3-3.8 12.5-6.6 5.2-2.7 10.2-5.5 11-6.3.9-.8 2.1-1.5 2.6-1.5.8 0 10.4-6.4 13.8-9.1.6-.5 2.9-2.4 5.1-4.1 5.7-4.6 7.3-6.2 17.4-16.3l11.5-11.5c1.5-1.4 2.6-3.1 2.6-3.7 0-.6.8-1.4 1.8-1.8.9-.3 3.6-3.6 5.9-7.3 3.7-5.7 7.6-10.6 14.7-18.2 2.2-2.3 8.6-12.1 8.6-13.1 0-.5 1.1-1.6 2.5-2.5 1.4-.9 2.5-2 2.5-2.4 0-.7 5.5-9 10.5-15.9 1.1-1.6 3.4-4.8 5-7.2 1.7-2.4 3.3-4.6 3.8-4.7.4-.2 1.4-1.9 2.2-3.8.8-1.9 1.9-3.4 2.4-3.4.6 0 1.1-.6 1.1-1.3 0-.8 1.4-3.3 3-5.5 1.7-2.3 3-4.4 3-4.8 0-.3 1.1-2 2.4-3.7 1.3-1.8 2.7-4.3 3.1-5.7.4-1.4 1.5-3.4 2.5-4.5.9-1.1 2.2-3.5 2.9-5.4.6-1.9 1.8-4.2 2.5-5 .8-.9 1.9-3.5 2.5-5.7.6-2.3 1.8-4.7 2.5-5.4.8-.6 1.8-2.6 2.1-4.3.4-1.8 1.7-5.3 3-7.8 1.3-2.6 2.6-6.2 3-8 .4-1.9 1.6-5.2 2.6-7.3 1.1-2.2 1.9-4.8 1.9-5.7 0-.9.9-4.6 2.1-8.1 1.1-3.4 2.7-9.2 3.4-12.8.7-3.6 2-9.1 2.9-12.3.9-3.1 2-9.5 2.5-14 .5-4.6 1.7-11.3 2.5-15 .9-3.7 1.9-13 2.2-20.8.7-14.7.6-14.3 7.2-25.5 4.4-7.5 5.2-14.9 4-38.4-.9-18.3-1.2-20.9-4.2-32.5-.8-3.3-1.5-7.2-1.6-8.7 0-1.5-1.1-6-2.4-10-1.3-4-2.8-9.1-3.4-11.3-1.8-6.5-5.9-17.7-8.1-22-1.2-2.1-2.1-4.7-2.1-5.6 0-.9-.7-2.2-1.5-2.9-.8-.7-1.5-1.9-1.5-2.6 0-.8-.4-2.2-.9-3.2-.5-.9-1.2-2.4-1.6-3.2-.3-.8-1.9-3.8-3.5-6.5-1.6-2.8-4.1-7-5.5-9.5-1.5-2.5-3.6-6.1-4.8-8-1.2-2-3.1-5-4.2-6.9-2-3.3-5.6-8.3-9.6-13.1-1.1-1.4-3.6-4.5-5.5-7-3.8-5-12.2-14.5-14.2-16.4-.7-.6-1.8-1.7-2.5-2.4s-3-3-5.1-5c-2.2-2-4.9-4.6-6-5.8-2.7-2.7-10.3-9.2-14.6-12.4-1.8-1.4-5.6-4.3-8.4-6.5-7-5.5-16-11.5-17.3-11.5-.6 0-1.7-.7-2.4-1.6-.8-.9-3.2-2.5-5.4-3.5s-7.3-3.7-11.3-5.8c-3.9-2.2-8.2-4.3-9.5-4.7-1.2-.3-2.9-1.2-3.7-1.9-.8-.6-4.4-2.2-8-3.5-3.6-1.2-6.9-2.6-7.5-3-.5-.4-2.8-1.1-5-1.5-2.2-.4-5.7-1.5-7.8-2.5-2.1-1.1-6-2.2-8.5-2.6-2.6-.3-7.2-1.5-10.2-2.4-5.1-1.7-22.7-4-41-5.5-4.1-.3-9.1-.7-11-.9-1.9-.2-7.3 0-12 .5zm25.6 85c7 .6 16.2 2 20.3 3.1 4.2 1.1 9.6 2.5 12 3 2.4.6 5.8 1.9 7.5 2.9 1.7 1 3.9 1.9 5 1.9 1.6 0 5.5 1.7 15.1 6.7 8.2 4.3 12.1 6.6 13.6 7.9.8.8 2 1.4 2.5 1.4.6 0 1.9.8 3 1.8 1 .9 2.9 2.4 4 3.2 13.8 9.7 33.4 28.7 40.8 39.5 2.6 3.8 5.1 7.2 5.6 7.5.4.3 1.7 2.3 2.9 4.5s3.3 5.8 4.6 8c2.2 3.7 12.6 24.4 14.5 29 .5 1.1 1.2 3.6 1.6 5.5.3 1.9.9 3.9 1.3 4.5 1.6 2.2 6.1 21.4 6.1 25.7 0 1.4-.6 3.9-1.4 5.5-1.6 3.1-3.1 6.8-4 9.5-.7 2.3-5.3 2.3-8.7 0-9-5.9-14.9-10-18.1-12.6-2-1.7-4.9-4-6.3-5.1-3-2.2-21.5-20.3-21.5-21 0-.2-1.9-2.3-4.3-4.7-2.4-2.4-4.8-5.1-5.4-6.2-2.7-4.9-13.9-14.6-21.1-18.3-7.5-3.8-7.6-3.8-19.1-3.7-11.4 0-11.7.1-18.8 3.8-5 2.6-9.5 6.1-14 10.9-14.9 15.4-27.3 27.5-31.4 30.3-2.4 1.6-5 3.6-5.9 4.4-.8.8-3.2 2.4-5.3 3.5-2 1.1-3.7 2.3-3.7 2.7 0 .5-.6.8-1.4.8-.7 0-2.4.8-3.7 1.9-3.2 2.5-12.7 7.6-15.9 8.5-1.4.4-4.7 1.8-7.5 3-7.2 3.3-17.1 6.6-24 8.1-16.3 3.5-21.9 4.5-30.6 5.1-13.4.9-23.1 4.8-30.4 12.2-3 3.1-5.5 5.9-5.5 6.4s-1.1 2.6-2.5 4.8c-5.6 8.9-5.5 28.8.2 38.9 3.4 6 10.7 13.1 18 17.2l5.8 3.4 20.5-.1c17.2-.1 21.8-.4 28.5-2.2 4.4-1.1 10.3-2.3 13-2.7 4.7-.6 18.3-4.2 25-6.7 1.7-.6 5.5-1.9 8.5-3 3-1 7.3-2.7 9.5-3.7 2.2-1.1 6.7-3.1 10-4.5 3.3-1.5 7.4-3.4 9-4.3 11.3-6 14.6-7.9 19-10.8 10.8-6.9 13.4-8.7 24.4-17.3 4.5-3.4 8.8-6.2 9.6-6.2.8 0 3.6 1.9 6.1 4.2 8.8 8.1 11.2 10.3 12.6 11.3.7.6 2.9 2.3 4.8 3.8s4.6 3.6 5.8 4.5c1.3.9 3.4 2.7 4.7 3.9 1.2 1.3 2.5 2.3 2.9 2.3.3 0 2.5 1.3 4.8 3 2.2 1.6 4.7 3 5.4 3 .8 0 1.9.9 2.6 2 .7 1.1 1.8 2 2.5 2s3.5 1.3 6.1 3c2.7 1.6 5.5 3 6.2 3 .7 0 2.9.9 4.9 2 3.7 2 7.8 3.6 18.6 7.1 6.8 2.3 7.6 3.2 6.4 6.8-.5 1.4-1.8 6.4-2.8 11.1-2.7 12-7.1 24.7-12.6 36.5-1.3 2.7-3.1 6.8-4 9-.9 2.1-1.9 4.2-2.4 4.5-.4.3-1.8 2.5-3 5-1.1 2.5-2.9 5.7-3.8 7.1-1 1.4-3.3 5.1-5.1 8.2-1.9 3.2-3.8 5.7-4.3 5.7s-.9.7-.9 1.5-1.1 2.5-2.5 3.7c-1.4 1.2-2.5 2.6-2.5 3.1s-1.3 2.6-3 4.7c-1.6 2.1-3 4.2-3 4.7s-1.1 2-2.5 3.3c-1.4 1.3-2.5 2.9-2.5 3.7 0 .7-.4 1.3-1 1.3-2.2 0-12.5 11.8-14.6 16.7-.7 1.7-1.8 3.4-2.4 3.8-.6.4-1.7 2.1-2.4 3.8-.8 1.8-2.2 4.2-3.2 5.5-8.4 10.5-14.4 17.4-19.7 22.4-3.4 3.2-7.3 7-8.7 8.3-1.4 1.4-3.1 2.5-3.8 2.5-.6 0-1.2.4-1.2.9 0 1-11.7 9.1-13.1 9.1-.5 0-2.7 1.1-4.9 2.5s-4.4 2.5-5 2.5c-.6 0-3.7 1.1-6.8 2.4-10.7 4.5-32 4.4-42.2-.2-2.5-1.1-5.6-2.3-7-2.7-1.4-.4-3.2-1.3-4-2-.8-.6-3.4-2.3-5.7-3.5-2.4-1.3-4.3-2.7-4.3-3.1 0-.4-.9-1.1-2.1-1.4-2.4-.8-16.3-14.5-23.6-23.2-5.6-6.7-16.3-23.5-16.3-25.5 0-1.5-10.4-12.7-13.5-14.5-1.1-.7-4-2.2-6.5-3.3-4.2-2-8.4-7.1-15.5-18.9-.5-.9-1.9-3-3-4.6-1.2-1.7-2.7-4.1-3.4-5.5-.7-1.4-2.7-5.1-4.4-8.2-4.6-8.3-11.3-22-17-34.8-.9-1.9-2.5-6.2-3.5-9.6-1.1-3.4-2.7-7.4-3.5-9-.8-1.6-1.7-4.7-2.1-6.9-.4-2.2-1.5-6.3-2.5-9-2.7-7.4-7-25.8-8.2-35.4-.5-4.7-1.2-8.7-1.4-9.1-.2-.3-1.1-6.1-2-13-1.8-12.8-1.6-18.6 1.6-46.5.6-5 1.4-12.8 2-17.4.5-4.6 1.5-10.2 2.3-12.5.8-2.3 2.2-7.1 3.1-10.7.9-3.5 2.2-7.3 2.9-8.4.8-1.1 1.7-3.6 2.1-5.5.4-1.9 1.8-5.5 3.1-8s2.4-5.1 2.4-5.8c0-.8.8-2.6 1.8-4 1-1.5 2.8-4.6 4-6.9 1.2-2.3 3.4-6.1 4.9-8.4 1.5-2.3 3.5-5.2 4.3-6.5 4.3-6.6 7.7-11 9.3-12.2.9-.7 1.7-1.8 1.7-2.4 0-.8 17.9-18.9 25.5-25.6 7.3-6.5 37.6-24.2 41.4-24.2.7 0 2.8-.9 4.6-2 1.8-1.1 5.9-2.5 9.1-3.1 3.3-.6 6.4-1.4 6.9-1.9 1.8-1.3 6.7-2.2 19.5-3.5 16.4-1.7 20.5-1.7 35.6-.4z"/><path d="M555 1029.1c-3 1.1-6.4 2.3-7.5 2.6-3 .9-10.4 6.8-14 11.1-1.7 2-4.4 6.4-6.1 9.6-2.7 5.6-2.9 6.7-2.8 17 .1 10 .4 11.6 2.7 16.2 1.5 2.9 2.7 5.6 2.7 6.2 0 .9 20.2 21.6 24.7 25.2 4.8 4 21 12.5 26.8 14.2 2.2.7 4.9 1.7 6 2.4 1.1.6 3.8 1.5 6 1.9 2.2.3 6.9 1.5 10.5 2.5 3.6 1.1 10.1 2.4 14.3 3 4.3.6 9.6 1.8 11.9 2.6 2.2.7 6.8 1.8 10.2 2.4 13.6 2.2 33.9 12.2 43.9 21.8 6.3 6 14.9 16.1 19.5 22.8 7.1 10.6 12.2 19.3 12.2 20.8 0 .6 1.1 3 2.4 5.3 1.3 2.3 2.7 5.7 3.1 7.5.4 1.8 1.6 5.8 2.7 8.8 1.1 3 2.4 8.6 3 12.5.7 4.4 1.3 58.3 1.7 145 .6 126.5.8 138.4 2.4 142.9.9 2.7 2.3 5.7 3 6.5.7.9 1.9 2.9 2.7 4.4 1.5 3 9.3 10.1 13.8 12.5 6.5 3.5 8.1 4 15.2 4.7 8.3.7 20.6-.9 23-2.9.8-.8 2.6-1.7 3.9-2.1 1.3-.4 3.9-2.1 5.7-3.9 1.8-1.7 3.9-3.7 4.6-4.3 3.7-3.5 4.8-5.4 7.7-12.8l3.1-8v-138c0-115.3-.2-139.2-1.4-145.5-.8-4.1-1.9-11.3-2.6-16-.6-4.7-1.7-10.3-2.5-12.5-.8-2.2-2.1-6.7-2.9-10-2.7-10.9-6.2-19.7-14.3-36-4.2-8.5-5.8-11.2-14.2-23.8-3.6-5.4-7.1-10.8-7.7-11.8-.6-1.1-2.1-2.7-3.3-3.5-1.1-.8-2.1-1.9-2.1-2.4 0-1-25.8-26.7-30.8-30.7-1.5-1.2-4-3.3-5.7-4.6-1.6-1.3-4.3-3.2-6-4.1-1.6-1-5.2-3-8-4.6-7.7-4.5-18.7-9.8-22-10.6-1.7-.4-4.6-1.5-6.5-2.6-1.9-1-4.3-1.8-5.2-1.8-1 0-4.7-1.1-8.3-2.5-3.6-1.3-9.3-2.8-12.8-3.3-10.8-1.5-28.9-5.3-36.7-7.7-4.1-1.3-8.6-2.5-10-2.9-1.4-.3-6.7-4.5-11.7-9.4-5.1-4.8-10.3-9.3-11.5-9.9-14.8-6.8-22.9-7.8-32.8-4.2zM411.8 1274.9c-3.1.9-6.3 2.2-7 2.9-.6.6-1.8 1.2-2.5 1.2s-1.3.4-1.3 1c0 .5-1.1 1.2-2.5 1.6-1.3.3-2.7 1.4-3 2.4-.3 1.1-1.5 2.2-2.6 2.5-1 .4-1.9 1.2-1.9 2 0 .7-.6 2-1.2 2.7-3.3 3.5-4.1 5.4-5.8 12.7-2.7 11.4-.8 24.2 4.7 32.4 3.8 5.6 9.3 11.7 10.7 11.7.5 0 2.3 1.1 4 2.4 4.3 3.2 16.6 5.9 23.6 5.1 8.9-1.1 14.3-2.6 17.7-5.1 1.7-1.3 3.6-2.4 4.1-2.4 1.6 0 10.3-10.3 12.2-14.5 3.5-7.9 5.2-15.7 4.5-21-1.1-8.6-3.6-16.9-6.1-20.2-1.3-1.7-2.4-3.4-2.4-3.7 0-1.1-7.5-7.5-8.7-7.6-.7 0-1.3-.4-1.3-.8 0-2.7-16-7.3-24.7-7.1-2.6.1-7.4.9-10.5 1.8zM1381.4 1299.8c-7.9 3.5-12.6 7.1-17.3 13.5-8.1 11.1-7.6 4.7-7.6 99.7 0 94-.5 86.7 6.9 98.3 3.7 5.8 9.8 10.8 18.1 14.8 4.4 2.1 6.4 2.4 16 2.4s11.6-.3 16-2.4c8.7-4.3 12.8-7.8 18.5-15.7 6.8-9.6 6.4-4.2 6.7-95.4.4-88.2.5-86.5-4.5-97-1.6-3.4-13.7-16-15.4-16-.4 0-3.1-1.1-6-2.5-4.5-2.2-6.5-2.5-15.2-2.4-8.7 0-11 .4-16.2 2.7zM416.1 1379.7c-2.4.3-6.1 1.5-8.2 2.9-2.1 1.3-4.4 2.4-5 2.4-1.2 0-2.4.9-6.7 5.2-5.1 5.1-6.2 6.4-6.2 7.4 0 .6-.9 1.9-1.9 2.8-2.5 2.3-4.2 9-4.8 18.6-.5 7.8 1.3 20.4 3.1 22.4.6.6 2 2.8 3.1 4.9 1.1 2.1 3 4.5 4.3 5.3 1.2.8 2.2 2.1 2.2 2.8 0 .8 1.1 1.7 2.5 2 1.4.4 2.5 1.1 2.5 1.6 0 .6.5 1 1.2 1 .6 0 1.9.6 2.7 1.3.9.8 5.1 2.2 9.4 3.2 8.4 1.9 15.7 1.6 23.3-1 5.2-1.8 13.2-6.8 15.1-9.5.8-1.1 2.1-2 2.9-2 .8 0 1.4-.6 1.4-1.3 0-.7 1-2.8 2.3-4.7 3.4-5 5.8-13.9 5.9-21.2.1-7.3-3-21.5-5.2-23.9-.8-1-2.6-3.3-4-5.3s-4-4.6-5.7-5.7c-1.8-1.1-3.3-2.5-3.3-3s-.4-.9-1-.9c-.5 0-3.3-1.1-6.2-2.4-5.4-2.5-14.9-3.6-23.7-2.9zM411.9 1498.9c-2 .4-5.2 1.7-7.1 2.9-1.9 1.2-4.2 2.2-4.9 2.2-1.3 0-5.2 3.5-11.6 10.2-1.2 1.3-3.6 5.5-5.2 9.5-2.7 6.2-3.1 8.4-3.1 16.2 0 8.2.3 9.8 3.4 16.4 3.4 7.4 13.8 19.7 16.7 19.7.8 0 3.7 1.2 6.4 2.7 4.5 2.3 6 2.6 15.1 2.5 9.4 0 10.5-.2 17.7-3.7 4.2-2 7.7-4 7.7-4.6 0-.5 1.1-1.4 2.5-1.9s2.5-1.6 2.5-2.4c0-.8.8-2.1 1.8-2.8 1-.7 3.4-4.4 5.3-8.2 3.3-6.6 3.4-7.4 3.4-18 0-10.5-.2-11.4-3.3-17.5-1.7-3.6-4-7.3-5-8.3-4.9-5.3-9.8-9.8-10.8-9.8-.6 0-3.2-1.1-5.7-2.5-3.6-1.9-6.7-2.5-13.4-2.9-4.9-.3-10.4-.2-12.4.3z"/></svg>